<svg width="256" height="256" viewBox="0 0 256 256" fill="none" xmlns="http://www.w3.org/2000/svg">
<rect width="256" height="256" rx="128" fill="#F6F6FB"/>
<path d="M128 74.6667C114.027 74.6667 102.667 86.0267 102.667 100C102.667 113.707 113.387 124.8 127.36 125.28C127.787 125.227 128.213 125.227 128.533 125.28C128.64 125.28 128.693 125.28 128.8 125.28C128.853 125.28 128.853 125.28 128.907 125.28C142.56 124.8 153.28 113.707 153.333 100C153.333 86.0267 141.973 74.6667 128 74.6667Z" fill="#808992"/>
<path d="M155.093 139.467C140.213 129.547 115.947 129.547 100.96 139.467C94.1867 144 90.4534 150.133 90.4534 156.693C90.4534 163.253 94.1867 169.333 100.907 173.813C108.373 178.827 118.187 181.333 128 181.333C137.813 181.333 147.627 178.827 155.093 173.813C161.813 169.28 165.547 163.2 165.547 156.587C165.493 150.027 161.813 143.947 155.093 139.467Z" fill="#808992"/>
</svg>
