<?xml version="1.0" encoding="utf-8"?>
<!-- Generator: Adobe Illustrator 17.1.0, SVG Export Plug-In . SVG Version: 6.00 Build 0)  -->
<!DOCTYPE svg PUBLIC "-//W3C//DTD SVG 1.1//EN" "http://www.w3.org/Graphics/SVG/1.1/DTD/svg11.dtd">
<svg version="1.1" id="Layer_1" xmlns="http://www.w3.org/2000/svg" xmlns:xlink="http://www.w3.org/1999/xlink" x="0px" y="0px"
	 viewBox="0 0 1000 1000" enable-background="new 0 0 1000 1000" xml:space="preserve">
<path fill="#FFFFFF" d="M251.3,594c0,26.7-21.3,48-48,48s-48-21.3-48-48c0-26.7,21.3-48,48-48C228.7,546,251.3,567.3,251.3,594z
	 M252.7,463.3c-5.3,0-10.7,5.3-10.7,10.7c0,5.3,5.3,10.7,10.7,10.7s10.7-5.3,10.7-10.7C263.3,468.7,258,463.3,252.7,463.3z M286,502
	c-4-4-10.7-4-14.7,0c-4,4-4,10.7,0,14.7c40,37.3,42.7,102.7,5.3,142.7c-4,4-4,10.7,0,14.7c1.3,1.3,4,2.7,6.7,2.7c2.7,0,5.3-1.3,8-4
	C336.7,624.7,334,547.3,286,502L286,502z M128.7,516.7c4-4,4-10.7,0-14.7c-4-4-10.7-4-14.7,0c-48,45.3-50.7,122.7-5.3,172
	c2.7,2.7,5.3,4,8,4s5.3-1.3,6.7-2.7c4-4,4-10.7,0-14.7C86,619.3,88.7,555.3,128.7,516.7L128.7,516.7z M139.3,682
	c-5.3,0-10.7,5.3-10.7,10.7s5.3,10.7,10.7,10.7c5.3,0,10.7-5.3,10.7-10.7S144.7,682,139.3,682z M635.3,551.3
	c-26.7,38.7-70.7,61.3-117.3,61.3H400.7c-12,98.7-96,174.7-198.7,174.7C91.3,787.3,2,698,2,586s89.3-201.3,200-201.3h9.3l46.7-93.3
	c25.3-48,74.7-78.7,128-78.7h612L959.3,290c-24,48-73.3,78.7-128,78.7h-8L802,411.3c-24,48-73.3,78.7-128,78.7h-8l-20,42.7 M370,586
	c0-93.3-74.7-168-168-168S35.3,494,35.3,586c0,93.3,74.7,168,168,168S370,679.3,370,586z M942,247.3H386c-41.3,0-78.7,22.7-96,60
	L276.7,334l-28,56C334,410,398,484.7,402,575.3h114.7c41.3,0,78.7-22.7,96-60l13.3-26.7H464.7c-9.3,0-17.3-8-17.3-17.3
	c0-9.3,8-17.3,17.3-17.3h210.7c41.3,0,78.7-22.7,96-60l13.3-26.7h-260c-9.3,0-17.3-8-17.3-17.3c0-9.3,8-17.3,17.3-17.3h306.7
	c41.3,0,78.7-22.7,96-60L942,247.3L942,247.3z"/>
</svg>
