<svg width="48" height="35" viewBox="0 0 48 35" fill="none" xmlns="http://www.w3.org/2000/svg">
	<path d="M12.4614 34.8076H10.5699C10.4039 34.8061 10.2454 34.7373 10.129 34.6162C10.0127 34.4952 9.94805 34.3318 9.94935 34.1621V34.1488C9.94848 33.9791 10.0132 33.8159 10.1294 33.6949C10.2457 33.5738 10.404 33.5046 10.5699 33.5024H12.4614C12.6267 33.5053 12.7843 33.5748 12.8999 33.6958C13.0155 33.8168 13.0797 33.9796 13.0786 34.1488V34.1621C13.0804 34.3314 13.0163 34.4945 12.9006 34.6155C12.7848 34.7366 12.6269 34.8057 12.4614 34.8076ZM30.387 33.1075H15.572C15.4064 33.1053 15.2484 33.036 15.1327 32.9148C15.017 32.7936 14.953 32.6305 14.9547 32.4611V32.4437C14.953 32.2743 15.017 32.1113 15.1328 31.9902C15.2485 31.8692 15.4065 31.8001 15.572 31.7981H30.387C30.5527 31.7999 30.711 31.8688 30.827 31.9899C30.943 32.1109 31.0074 32.2741 31.0059 32.4437V32.4569C31.0071 32.5413 30.9921 32.625 30.9617 32.7034C30.9313 32.7818 30.886 32.8533 30.8285 32.9137C30.771 32.9741 30.7024 33.0224 30.6266 33.0556C30.5509 33.0889 30.4694 33.1065 30.387 33.1075ZM13.9741 29.7204H2.45791L1.25 29.7162C1 29.7162 0.613644 29.5836 0.35 29.3C0.0964905 29.0273 0.00365939 28.7854 0 28.4131C-0.00375303 28.0312 0.0860024 27.7759 0.35 27.5C0.614811 27.2232 1 27.11 1.25 27.11H13.9741C15.418 27.1083 16.8324 26.6908 18.0552 25.9053C19.2781 25.1198 20.2601 23.998 20.8888 22.6682L21.8484 20.6835H10.1091C9.7777 20.6795 9.4613 20.5413 9.22929 20.2991C8.99727 20.057 8.86857 19.7306 8.87138 19.3915V19.3658C8.86857 19.0267 8.99727 18.7003 9.22929 18.4582C9.4613 18.216 9.7777 18.0778 10.1091 18.0739H25.2323C26.6763 18.0724 28.0907 17.655 29.3136 16.8694C30.5365 16.0839 31.5185 14.962 32.1471 13.6321L33.1066 11.6474H14.4892C14.1577 11.6434 13.8413 11.5052 13.6093 11.263C13.3773 11.0209 13.2486 10.6945 13.2514 10.3554V10.3289C13.2484 9.98965 13.377 9.66305 13.609 9.4207C13.841 9.17835 14.1576 9.04004 14.4892 9.0361H36.4922C37.9362 9.03442 39.3505 8.61694 40.5733 7.83143C41.7962 7.04593 42.7782 5.92412 43.407 4.59439L44.3665 2.61126H1.25C1 2.61126 0.614282 2.48972 0.35 2.21C0.0899185 1.93473 0 1.66 0 1.30563C0 1 0.0934148 0.684193 0.35 0.41C0.613897 0.127993 1 0 1.25 0H46.5541C46.752 0.00115254 46.9463 0.0543418 47.1183 0.154459C47.2903 0.254577 47.4343 0.398259 47.5363 0.571705C47.6404 0.746845 47.6993 0.946184 47.7074 1.15099C47.7155 1.35579 47.6725 1.55934 47.5826 1.7425L45.6359 5.76767C44.8041 7.5271 43.5049 9.01143 41.887 10.0508C40.2691 11.0902 38.3978 11.6426 36.4874 11.6449H35.9034L34.376 14.8054C33.5441 16.5646 32.2448 18.0486 30.6269 19.0877C29.009 20.1268 27.1378 20.6789 25.2275 20.681H24.6451L23.1251 23.8266H32.6816C32.8476 23.8283 33.0062 23.8974 33.1225 24.0185C33.2388 24.1397 33.3034 24.3031 33.3021 24.473V24.4862C33.3034 24.656 33.2388 24.8193 33.1224 24.9404C33.0061 25.0614 32.8475 25.1303 32.6816 25.1318H22.3853C21.4551 26.54 20.2024 27.6943 18.7364 28.494C17.2704 29.2937 15.6355 29.7148 13.9741 29.7204ZM28.0956 27.7746H23.7042C23.5384 27.7726 23.3802 27.7035 23.2641 27.5823C23.1481 27.4611 23.0838 27.2978 23.0853 27.1282V27.1166C23.0838 26.947 23.1481 26.7837 23.2641 26.6625C23.3802 26.5413 23.5384 26.4722 23.7042 26.4702H28.0956C28.2614 26.4722 28.4196 26.5413 28.5357 26.6625C28.6517 26.7837 28.716 26.947 28.7145 27.1166V27.1282C28.716 27.2978 28.6517 27.4611 28.5357 27.5823C28.4196 27.7035 28.2614 27.7726 28.0956 27.7746ZM44.1483 23.2491H29.3325C29.1667 23.2471 29.0085 23.1779 28.8925 23.0568C28.7764 22.9356 28.7121 22.7723 28.7137 22.6027V22.5911C28.7121 22.4215 28.7764 22.2582 28.8925 22.137C29.0085 22.0158 29.1667 21.9467 29.3325 21.9447H44.1483C44.3143 21.9464 44.4729 22.0155 44.5892 22.1366C44.7055 22.2578 44.7701 22.4212 44.7688 22.5911V22.6027C44.7701 22.7725 44.7055 22.9359 44.5892 23.0571C44.4729 23.1783 44.3143 23.2473 44.1483 23.2491Z" fill="white"/>
</svg>