<svg version="1.2" xmlns="http://www.w3.org/2000/svg" viewBox="0 0 60 60" width="60" height="60"><style>.a{fill:#fff}</style><path fill-rule="evenodd" class="a" d="m17.5 48.8h-1.9q-0.3 0-0.5-0.2-0.1-0.2-0.2-0.4v-0.1q0.1-0.2 0.2-0.4 0.2-0.2 0.5-0.2h1.9q0.2 0 0.4 0.2 0.2 0.2 0.2 0.4v0.1q0 0.2-0.2 0.4-0.2 0.2-0.4 0.2zm3.1-1.7q-0.3 0-0.5-0.2-0.1-0.2-0.1-0.4v-0.1q0-0.2 0.1-0.4 0.2-0.2 0.5-0.2h14.8q0.2 0 0.4 0.2 0.2 0.2 0.2 0.4c0 0.1 0 0.2 0 0.3q-0.1 0.1-0.2 0.2-0.1 0.1-0.2 0.2c-0.1 0-14.9 0-15 0zm-1.6-3.4h-12.7c-0.3 0-0.7-0.1-0.9-0.4-0.3-0.3-0.4-0.5-0.4-0.9 0-0.4 0.1-0.6 0.4-0.9 0.2-0.3 0.6-0.4 0.9-0.4h12.7c1.4 0 2.8-0.4 4.1-1.2 1.2-0.8 2.2-1.9 2.8-3.2l0.9-2h-11.7c-0.3 0-0.6-0.2-0.9-0.4-0.2-0.2-0.3-0.6-0.3-0.9q0-0.6 0.3-0.9c0.3-0.3 0.6-0.4 0.9-0.4h15.1c1.5 0 2.9-0.4 4.1-1.2 1.2-0.8 2.2-1.9 2.8-3.3l1-2h-18.6c-0.3 0-0.7-0.1-0.9-0.3-0.2-0.3-0.4-0.6-0.3-0.9v-0.1c-0.1-0.3 0.1-0.6 0.3-0.9 0.2-0.2 0.6-0.4 0.9-0.4h22c1.4 0 2.9-0.4 4.1-1.2 1.2-0.8 2.2-1.9 2.8-3.2l1-2h-43.1c-0.3 0-0.7-0.1-0.9-0.4-0.3-0.3-0.4-0.5-0.4-0.9 0-0.3 0.1-0.6 0.4-0.9 0.2-0.3 0.6-0.4 0.9-0.4h45.3q0.3 0 0.5 0.2 0.3 0.1 0.4 0.4 0.2 0.2 0.2 0.6 0 0.3-0.1 0.5l-2 4.1c-0.8 1.7-2.1 3.2-3.7 4.3-1.6 1-3.5 1.5-5.4 1.5h-0.6l-1.5 3.2c-0.9 1.8-2.2 3.2-3.8 4.3-1.6 1-3.5 1.6-5.4 1.6h-0.6l-1.5 3.1h9.6q0.2 0 0.4 0.2 0.2 0.2 0.2 0.5 0 0.2-0.2 0.4-0.2 0.2-0.4 0.2h-10.3c-0.9 1.4-2.2 2.6-3.7 3.4-1.4 0.8-3.1 1.2-4.7 1.2zm14.1-1.9h-4.4q-0.3 0-0.4-0.2-0.2-0.2-0.2-0.5 0-0.2 0.2-0.4 0.1-0.2 0.4-0.2h4.4q0.3 0 0.4 0.2 0.2 0.2 0.2 0.4 0 0.3-0.2 0.5-0.1 0.2-0.4 0.2zm16-4.6h-14.8q-0.2 0-0.4-0.1-0.2-0.2-0.2-0.5 0-0.3 0.2-0.5 0.2-0.1 0.4-0.2h14.8q0.3 0.1 0.5 0.2 0.2 0.2 0.2 0.5 0 0.3-0.2 0.5-0.2 0.1-0.5 0.1z"/></svg>